<svg width="23" height="26" viewBox="0 0 23 26" fill="none" xmlns="http://www.w3.org/2000/svg">
<path d="M20.3337 11.25V6.93337C20.3337 4.97319 20.3337 3.9931 19.9522 3.24441C19.6166 2.58584 19.0812 2.05041 18.4226 1.71485C17.6739 1.33337 16.6938 1.33337 14.7337 1.33337H7.26699C5.30681 1.33337 4.32672 1.33337 3.57803 1.71485C2.91946 2.05041 2.38403 2.58584 2.04847 3.24441C1.66699 3.9931 1.66699 4.97319 1.66699 6.93337V19.0667C1.66699 21.0269 1.66699 22.007 2.04847 22.7557C2.38403 23.4142 2.91946 23.9497 3.57803 24.2852C4.32672 24.6667 5.30681 24.6667 7.26699 24.6667H11.0003M18.0003 23.5V16.5M14.5003 20H21.5003" stroke="black" stroke-width="2" stroke-linecap="round" stroke-linejoin="round"/>
</svg>
