<svg width="34" height="35" viewBox="0 0 34 35" fill="black" xmlns="http://www.w3.org/2000/svg">
<ellipse cx="17" cy="17.5" rx="17" ry="17.5" fill="#F15350"/>
<path fill-rule="evenodd" clip-rule="evenodd" d="M20 9C20.292 9 20.438 9 20.5781 9.04183C21.192 9.22522 21.4775 9.93111 21.1637 10.4898C21.0921 10.6172 20.8744 10.8278 20.4389 11.249C18.935 12.7035 18 14.7426 18 17C18 19.2574 18.935 21.2965 20.4389 22.751C20.8744 23.1722 21.0921 23.3828 21.1637 23.5102C21.4775 24.0689 21.192 24.7748 20.5781 24.9582C20.438 25 20.292 25 20 25C15.5817 25 12 21.4183 12 17C12 12.5817 15.5817 9 20 9Z" fill="white"/>
</svg>
