<svg width="133" height="30" viewBox="0 0 133 30" fill="none" xmlns="http://www.w3.org/2000/svg">
<rect width="133" height="30" rx="6" fill="#20744A" fill-opacity="0.15"/>
<path fill-rule="evenodd" clip-rule="evenodd" d="M25.9754 7.34269H20.2773V6L10.9111 7.44562V20.1171L20.2773 21.7303V19.7402H25.9754C26.1481 19.7492 26.3173 19.6894 26.4458 19.5738C26.5744 19.4582 26.6518 19.2963 26.6611 19.1237V7.95862C26.6517 7.78609 26.5742 7.62435 26.4456 7.50888C26.3171 7.39341 26.148 7.33364 25.9754 7.34269ZM26.0654 19.2261H20.2582L20.2486 18.1635H21.6476V16.926H20.2379L20.2312 16.1947H21.6476V14.9572H20.2205L20.2138 14.226H21.6476V12.9885H20.2093V12.2572H21.6476V11.0198H20.2093V10.2885H21.6476V9.051H20.2093V7.926H26.0654V19.2261Z" fill="#20744A"/>
<path d="M22.4355 9.04932H24.8672V10.2868H22.4355V9.04932ZM22.4355 11.0186H24.8672V12.2561H22.4355V11.0186ZM22.4355 12.9879H24.8672V14.2254H22.4355V12.9879ZM22.4355 14.9573H24.8672V16.1948H22.4355V14.9573ZM22.4355 16.9266H24.8672V18.1641H22.4355V16.9266Z" fill="#20744A"/>
<path fill-rule="evenodd" clip-rule="evenodd" d="M13.5703 12.0037L14.7774 11.9345L15.5362 14.0209L16.4329 11.8485L17.64 11.7793L16.1741 14.7414L17.64 17.7109L16.3637 17.6248L15.5019 15.3613L14.6396 17.5387L13.4668 17.4352L14.8292 14.8123L13.5703 12.0037Z" fill="white"/>
<path d="M39.104 19.5C39.024 19.5 38.984 19.46 38.984 19.38V11.22C38.984 11.14 39.024 11.1 39.104 11.1H40.016C40.096 11.1 40.136 11.14 40.136 11.22V19.38C40.136 19.46 40.096 19.5 40.016 19.5H39.104ZM48.3052 13.308C48.9132 13.308 49.3932 13.492 49.7452 13.86C50.0972 14.22 50.2732 14.724 50.2732 15.372V19.38C50.2732 19.46 50.2332 19.5 50.1532 19.5H49.2532C49.1732 19.5 49.1332 19.46 49.1332 19.38V15.612C49.1332 15.212 49.0212 14.896 48.7972 14.664C48.5812 14.424 48.2892 14.304 47.9212 14.304C47.5532 14.304 47.2532 14.42 47.0212 14.652C46.7892 14.884 46.6732 15.196 46.6732 15.588V19.38C46.6732 19.46 46.6332 19.5 46.5532 19.5H45.6532C45.5732 19.5 45.5332 19.46 45.5332 19.38V15.612C45.5332 15.212 45.4212 14.896 45.1972 14.664C44.9812 14.424 44.6892 14.304 44.3212 14.304C43.9532 14.304 43.6572 14.42 43.4332 14.652C43.2172 14.884 43.1092 15.196 43.1092 15.588V19.38C43.1092 19.46 43.0692 19.5 42.9892 19.5H42.0772C41.9972 19.5 41.9572 19.46 41.9572 19.38V13.512C41.9572 13.432 41.9972 13.392 42.0772 13.392H42.9892C43.0692 13.392 43.1092 13.432 43.1092 13.512V13.92C43.1092 13.936 43.1132 13.948 43.1212 13.956C43.1372 13.964 43.1532 13.96 43.1692 13.944C43.5212 13.52 44.0332 13.308 44.7052 13.308C45.1132 13.308 45.4612 13.388 45.7492 13.548C46.0372 13.7 46.2612 13.928 46.4212 14.232C46.4452 14.264 46.4692 14.264 46.4932 14.232C46.6852 13.92 46.9372 13.688 47.2492 13.536C47.5692 13.384 47.9212 13.308 48.3052 13.308ZM56.8273 14.928C56.9793 15.36 57.0553 15.872 57.0553 16.464C57.0553 17.024 56.9913 17.508 56.8633 17.916C56.6953 18.452 56.4193 18.868 56.0353 19.164C55.6513 19.452 55.1593 19.596 54.5592 19.596C54.2873 19.596 54.0273 19.544 53.7793 19.44C53.5393 19.328 53.3313 19.172 53.1553 18.972C53.1393 18.956 53.1233 18.952 53.1073 18.96C53.0993 18.968 53.0953 18.98 53.0953 18.996V21.672C53.0953 21.752 53.0553 21.792 52.9753 21.792H52.0633C51.9833 21.792 51.9433 21.752 51.9433 21.672V13.512C51.9433 13.432 51.9833 13.392 52.0633 13.392H52.9753C53.0553 13.392 53.0953 13.432 53.0953 13.512V13.908C53.0953 13.924 53.0993 13.936 53.1073 13.944C53.1233 13.952 53.1393 13.948 53.1553 13.932C53.3313 13.732 53.5393 13.576 53.7793 13.464C54.0193 13.352 54.2793 13.296 54.5592 13.296C55.1353 13.296 55.6113 13.44 55.9873 13.728C56.3713 14.008 56.6513 14.408 56.8273 14.928ZM55.5073 18.024C55.7633 17.64 55.8913 17.112 55.8913 16.44C55.8913 15.824 55.7913 15.328 55.5913 14.952C55.3593 14.512 54.9793 14.292 54.4513 14.292C53.9873 14.292 53.6353 14.508 53.3953 14.94C53.2033 15.284 53.1073 15.788 53.1073 16.452C53.1073 17.124 53.2113 17.636 53.4193 17.988C53.6513 18.396 53.9913 18.6 54.4393 18.6C54.9193 18.6 55.2753 18.408 55.5073 18.024ZM60.9883 19.596C60.3963 19.596 59.8803 19.448 59.4403 19.152C59.0003 18.848 58.6923 18.428 58.5163 17.892C58.3723 17.46 58.3003 16.972 58.3003 16.428C58.3003 15.86 58.3683 15.38 58.5043 14.988C58.6803 14.46 58.9883 14.048 59.4283 13.752C59.8683 13.448 60.3923 13.296 61.0003 13.296C61.5763 13.296 62.0763 13.448 62.5003 13.752C62.9323 14.048 63.2403 14.456 63.4243 14.976C63.5683 15.384 63.6403 15.864 63.6403 16.416C63.6403 16.976 63.5683 17.468 63.4243 17.892C63.2483 18.428 62.9443 18.848 62.5123 19.152C62.0803 19.448 61.5723 19.596 60.9883 19.596ZM60.9883 18.6C61.3083 18.6 61.5883 18.512 61.8283 18.336C62.0683 18.152 62.2403 17.896 62.3443 17.568C62.4323 17.264 62.4763 16.888 62.4763 16.44C62.4763 15.992 62.4363 15.62 62.3563 15.324C62.2523 14.996 62.0803 14.744 61.8403 14.568C61.6003 14.384 61.3083 14.292 60.9643 14.292C60.6363 14.292 60.3523 14.384 60.1123 14.568C59.8723 14.744 59.7003 14.996 59.5963 15.324C59.5083 15.604 59.4643 15.976 59.4643 16.44C59.4643 16.904 59.5083 17.28 59.5963 17.568C59.6923 17.896 59.8603 18.152 60.1003 18.336C60.3483 18.512 60.6443 18.6 60.9883 18.6ZM67.8246 13.332C68.0806 13.332 68.3126 13.384 68.5206 13.488C68.5766 13.512 68.5966 13.56 68.5806 13.632L68.3886 14.532C68.3806 14.604 68.3326 14.628 68.2446 14.604C68.1086 14.548 67.9486 14.52 67.7646 14.52L67.5966 14.532C67.2206 14.548 66.9086 14.68 66.6606 14.928C66.4206 15.168 66.3006 15.484 66.3006 15.876V19.38C66.3006 19.46 66.2606 19.5 66.1806 19.5H65.2686C65.1886 19.5 65.1486 19.46 65.1486 19.38V13.512C65.1486 13.432 65.1886 13.392 65.2686 13.392H66.1806C66.2606 13.392 66.3006 13.432 66.3006 13.512V14.148C66.3006 14.172 66.3046 14.188 66.3126 14.196C66.3286 14.196 66.3406 14.188 66.3486 14.172C66.7086 13.612 67.2006 13.332 67.8246 13.332ZM72.7426 14.22C72.7426 14.3 72.7026 14.34 72.6226 14.34H71.3266C71.2946 14.34 71.2786 14.356 71.2786 14.388V17.568C71.2786 17.904 71.3546 18.148 71.5066 18.3C71.6586 18.444 71.8946 18.516 72.2146 18.516H72.5626C72.6426 18.516 72.6826 18.556 72.6826 18.636V19.38C72.6826 19.46 72.6426 19.5 72.5626 19.5C72.3066 19.516 72.1226 19.524 72.0106 19.524C71.4026 19.524 70.9426 19.416 70.6306 19.2C70.3266 18.976 70.1746 18.568 70.1746 17.976V14.388C70.1746 14.356 70.1586 14.34 70.1266 14.34H69.3946C69.3146 14.34 69.2746 14.3 69.2746 14.22V13.512C69.2746 13.432 69.3146 13.392 69.3946 13.392H70.1266C70.1586 13.392 70.1746 13.376 70.1746 13.344V11.928C70.1746 11.848 70.2146 11.808 70.2946 11.808H71.1586C71.2386 11.808 71.2786 11.848 71.2786 11.928V13.344C71.2786 13.376 71.2946 13.392 71.3266 13.392H72.6226C72.7026 13.392 72.7426 13.432 72.7426 13.512V14.22ZM81.5067 15.684C81.5387 16.012 81.5507 16.38 81.5427 16.788C81.5427 16.868 81.5027 16.908 81.4227 16.908H77.5947C77.5627 16.908 77.5467 16.924 77.5467 16.956C77.5467 17.228 77.5707 17.436 77.6187 17.58C77.7067 17.9 77.8827 18.152 78.1467 18.336C78.4187 18.512 78.7587 18.6 79.1667 18.6C79.7587 18.6 80.2147 18.356 80.5347 17.868C80.5747 17.788 80.6267 17.776 80.6907 17.832L81.3747 18.288C81.4307 18.336 81.4427 18.388 81.4107 18.444C81.1867 18.804 80.8667 19.088 80.4507 19.296C80.0427 19.504 79.5787 19.608 79.0587 19.608C78.4747 19.608 77.9827 19.48 77.5827 19.224C77.1827 18.968 76.8827 18.604 76.6827 18.132C76.4907 17.66 76.3947 17.088 76.3947 16.416C76.3947 15.832 76.4387 15.388 76.5267 15.084C76.6707 14.532 76.9587 14.096 77.3907 13.776C77.8227 13.456 78.3467 13.296 78.9627 13.296C79.7707 13.296 80.3747 13.5 80.7747 13.908C81.1747 14.308 81.4187 14.9 81.5067 15.684ZM78.9627 14.292C78.6187 14.292 78.3347 14.38 78.1107 14.556C77.8867 14.724 77.7347 14.952 77.6547 15.24C77.5987 15.416 77.5627 15.64 77.5467 15.912C77.5467 15.944 77.5627 15.96 77.5947 15.96H80.3427C80.3747 15.96 80.3907 15.944 80.3907 15.912C80.3747 15.648 80.3507 15.452 80.3187 15.324C80.2387 15.012 80.0787 14.764 79.8387 14.58C79.6067 14.388 79.3147 14.292 78.9627 14.292ZM82.3533 19.5C82.3053 19.5 82.2733 19.488 82.2573 19.464C82.2413 19.432 82.2453 19.396 82.2693 19.356L84.2613 16.488C84.2773 16.464 84.2773 16.44 84.2613 16.416L82.2693 13.536L82.2453 13.476C82.2453 13.42 82.2813 13.392 82.3533 13.392H83.3253C83.3893 13.392 83.4373 13.416 83.4693 13.464L84.8733 15.516C84.8813 15.524 84.8933 15.528 84.9093 15.528C84.9253 15.528 84.9373 15.524 84.9453 15.516L86.3373 13.464C86.3693 13.416 86.4173 13.392 86.4813 13.392H87.5253C87.5733 13.392 87.6053 13.408 87.6213 13.44C87.6373 13.464 87.6333 13.496 87.6093 13.536L85.6173 16.416C85.6093 16.44 85.6093 16.464 85.6173 16.488L87.6093 19.356L87.6333 19.416C87.6333 19.472 87.5973 19.5 87.5253 19.5H86.5413C86.4773 19.5 86.4293 19.476 86.3973 19.428L85.0053 17.376C84.9973 17.36 84.9853 17.352 84.9693 17.352C84.9533 17.352 84.9413 17.36 84.9333 17.376L83.5293 19.428C83.4973 19.476 83.4493 19.5 83.3853 19.5H82.3533ZM90.9052 19.596C90.2972 19.596 89.7772 19.444 89.3452 19.14C88.9132 18.828 88.6172 18.408 88.4572 17.88C88.3372 17.512 88.2772 17.028 88.2772 16.428C88.2772 15.876 88.3372 15.392 88.4572 14.976C88.6172 14.464 88.9132 14.056 89.3452 13.752C89.7852 13.448 90.3052 13.296 90.9052 13.296C91.5052 13.296 92.0292 13.448 92.4772 13.752C92.9252 14.056 93.2172 14.44 93.3532 14.904C93.4012 15.032 93.4332 15.164 93.4492 15.3C93.4492 15.364 93.4132 15.404 93.3412 15.42L92.4412 15.552H92.4172C92.3612 15.552 92.3212 15.516 92.2972 15.444L92.2612 15.252C92.1972 14.98 92.0412 14.752 91.7932 14.568C91.5452 14.384 91.2452 14.292 90.8932 14.292C90.5492 14.292 90.2572 14.384 90.0172 14.568C89.7772 14.752 89.6212 14.996 89.5492 15.3C89.4772 15.588 89.4412 15.968 89.4412 16.44C89.4412 16.904 89.4772 17.28 89.5492 17.568C89.6292 17.888 89.7852 18.14 90.0172 18.324C90.2572 18.508 90.5492 18.6 90.8932 18.6C91.2452 18.6 91.5452 18.508 91.7932 18.324C92.0492 18.14 92.2092 17.9 92.2732 17.604C92.2812 17.596 92.2812 17.588 92.2732 17.58C92.2732 17.564 92.2772 17.552 92.2852 17.544V17.496C92.3092 17.432 92.3532 17.408 92.4172 17.424L93.3172 17.568C93.3812 17.584 93.4132 17.616 93.4132 17.664V17.712C93.4132 17.784 93.3932 17.872 93.3532 17.976C93.2172 18.464 92.9252 18.856 92.4772 19.152C92.0292 19.448 91.5052 19.596 90.9052 19.596ZM99.6707 15.684C99.7027 16.012 99.7147 16.38 99.7067 16.788C99.7067 16.868 99.6667 16.908 99.5867 16.908H95.7587C95.7267 16.908 95.7107 16.924 95.7107 16.956C95.7107 17.228 95.7347 17.436 95.7827 17.58C95.8707 17.9 96.0467 18.152 96.3107 18.336C96.5827 18.512 96.9227 18.6 97.3307 18.6C97.9227 18.6 98.3787 18.356 98.6987 17.868C98.7387 17.788 98.7907 17.776 98.8547 17.832L99.5387 18.288C99.5947 18.336 99.6067 18.388 99.5747 18.444C99.3507 18.804 99.0307 19.088 98.6147 19.296C98.2067 19.504 97.7427 19.608 97.2227 19.608C96.6387 19.608 96.1467 19.48 95.7467 19.224C95.3467 18.968 95.0467 18.604 94.8467 18.132C94.6547 17.66 94.5587 17.088 94.5587 16.416C94.5587 15.832 94.6027 15.388 94.6907 15.084C94.8347 14.532 95.1227 14.096 95.5547 13.776C95.9867 13.456 96.5107 13.296 97.1267 13.296C97.9347 13.296 98.5387 13.5 98.9387 13.908C99.3387 14.308 99.5827 14.9 99.6707 15.684ZM97.1267 14.292C96.7827 14.292 96.4987 14.38 96.2747 14.556C96.0507 14.724 95.8987 14.952 95.8187 15.24C95.7627 15.416 95.7267 15.64 95.7107 15.912C95.7107 15.944 95.7267 15.96 95.7587 15.96H98.5067C98.5387 15.96 98.5547 15.944 98.5547 15.912C98.5387 15.648 98.5147 15.452 98.4827 15.324C98.4027 15.012 98.2427 14.764 98.0027 14.58C97.7707 14.388 97.4787 14.292 97.1267 14.292ZM101.28 19.5C101.2 19.5 101.16 19.46 101.16 19.38V11.22C101.16 11.14 101.2 11.1 101.28 11.1H102.192C102.272 11.1 102.312 11.14 102.312 11.22V19.38C102.312 19.46 102.272 19.5 102.192 19.5H101.28ZM109.075 12.108C108.675 12.108 108.403 12.184 108.259 12.336C108.115 12.488 108.043 12.776 108.043 13.2V13.344C108.043 13.376 108.059 13.392 108.091 13.392H109.351C109.431 13.392 109.471 13.432 109.471 13.512V14.328C109.471 14.408 109.431 14.448 109.351 14.448H108.091C108.059 14.448 108.043 14.464 108.043 14.496V19.38C108.043 19.46 108.003 19.5 107.923 19.5H107.011C106.931 19.5 106.891 19.46 106.891 19.38V14.496C106.891 14.464 106.875 14.448 106.843 14.448H106.039C105.959 14.448 105.919 14.408 105.919 14.328V13.512C105.919 13.432 105.959 13.392 106.039 13.392H106.843C106.875 13.392 106.891 13.376 106.891 13.344V13.128C106.891 12.6 106.951 12.192 107.071 11.904C107.199 11.616 107.411 11.412 107.707 11.292C108.003 11.164 108.419 11.1 108.955 11.1H109.363C109.443 11.1 109.483 11.14 109.483 11.22V11.988C109.483 12.068 109.443 12.108 109.363 12.108H109.075ZM111.487 12.432C111.263 12.432 111.079 12.36 110.935 12.216C110.791 12.072 110.719 11.888 110.719 11.664C110.719 11.44 110.791 11.256 110.935 11.112C111.079 10.968 111.263 10.896 111.487 10.896C111.711 10.896 111.895 10.968 112.039 11.112C112.183 11.256 112.255 11.44 112.255 11.664C112.255 11.888 112.183 12.072 112.039 12.216C111.895 12.36 111.711 12.432 111.487 12.432ZM111.007 19.488C110.927 19.488 110.887 19.448 110.887 19.368V13.512C110.887 13.432 110.927 13.392 111.007 13.392H111.919C111.999 13.392 112.039 13.432 112.039 13.512V19.368C112.039 19.448 111.999 19.488 111.919 19.488H111.007ZM113.972 19.5C113.892 19.5 113.852 19.46 113.852 19.38V11.22C113.852 11.14 113.892 11.1 113.972 11.1H114.884C114.964 11.1 115.004 11.14 115.004 11.22V19.38C115.004 19.46 114.964 19.5 114.884 19.5H113.972ZM121.62 15.684C121.652 16.012 121.664 16.38 121.656 16.788C121.656 16.868 121.616 16.908 121.536 16.908H117.708C117.676 16.908 117.66 16.924 117.66 16.956C117.66 17.228 117.684 17.436 117.732 17.58C117.82 17.9 117.996 18.152 118.26 18.336C118.532 18.512 118.872 18.6 119.28 18.6C119.872 18.6 120.328 18.356 120.648 17.868C120.688 17.788 120.74 17.776 120.804 17.832L121.488 18.288C121.544 18.336 121.556 18.388 121.524 18.444C121.3 18.804 120.98 19.088 120.564 19.296C120.156 19.504 119.692 19.608 119.172 19.608C118.588 19.608 118.096 19.48 117.696 19.224C117.296 18.968 116.996 18.604 116.796 18.132C116.604 17.66 116.508 17.088 116.508 16.416C116.508 15.832 116.552 15.388 116.64 15.084C116.784 14.532 117.072 14.096 117.504 13.776C117.936 13.456 118.46 13.296 119.076 13.296C119.884 13.296 120.488 13.5 120.888 13.908C121.288 14.308 121.532 14.9 121.62 15.684ZM119.076 14.292C118.732 14.292 118.448 14.38 118.224 14.556C118 14.724 117.848 14.952 117.768 15.24C117.712 15.416 117.676 15.64 117.66 15.912C117.66 15.944 117.676 15.96 117.708 15.96H120.456C120.488 15.96 120.504 15.944 120.504 15.912C120.488 15.648 120.464 15.452 120.432 15.324C120.352 15.012 120.192 14.764 119.952 14.58C119.72 14.388 119.428 14.292 119.076 14.292Z" fill="#20744A"/>
</svg>
